#!OML:ASF H:\ManfredETheater\Project 1\Capture day 1\Session 1\subject.ASF
:FULLY-SPECIFIED
:DEGREES
169
root 0.245077 15.4417 -24.6174 -158.075 -53.8856 164.706
lowerback 20.7452 -0.494629 -6.65772
upperback -0.0835981 -2.3413 0.300464
thorax -11.5069 -0.740806 4.85342
lowerneck -10.8146 -11.7871 -11.222
upperneck -1.73582 -14.7999 10.6885
head 2.81985 -7.17951 3.98536
rclavicle -4.1546e-014 -5.00937e-014
rhumerus -38.0836 6.60022 -81.6209
rradius 102.979
rwrist -0.160607
rhand -29.5131 2.83133
rfingers 7.12502
rthumb -2.84721 -27.1294
lclavicle -4.1546e-014 -5.00937e-014
lhumerus -0.911919 -31.6071 81.5207
lradius 114.978
lwrist 14.5621
lhand -13.5878 -12.3241
lfingers 7.12502
lthumb 12.5265 17.2804
rfemur -66.6587 -26.5266 6.57317
rtibia 83.4633
rfoot -16.0184 -13.6395
rtoes -25.3746
lfemur -18.901 -1.12344 -10.063
ltibia 63.1329
lfoot -11.5005 5.04809
ltoes 68.9617
170
root 0.085927 15.4663 -24.9514 -157.591 -52.5054 164.36
lowerback 20.5777 -0.473265 -6.77706
upperback -0.298078 -2.31266 0.424539
thorax -11.6515 -0.699513 5.05055
lowerneck -11.5054 -11.4315 -10.7537
upperneck -1.77823 -14.2899 9.82265
head 2.75419 -6.93899 3.6844
rclavicle -7.95139e-016 3.18055e-015
rhumerus -39.1668 8.03015 -81.4742
rradius 104.676
rwrist 1.00819
rhand -29.73 3.61612
rfingers 7.12502
rthumb -3.05668 -26.3417
lclavicle -7.95139e-016 3.18055e-015
lhumerus -2.27751 -30.7805 80.1826
lradius 117.694
lwrist 15.0034
lhand -13.0493 -12.3435
lfingers 7.12502
lthumb 13.0457 17.2285
rfemur -67.421 -25.803 5.99762
rtibia 81.2338
rfoot -16.4594 -13.9304
rtoes -26.3485
lfemur -16.5103 -1.37503 -10.4602
ltibia 60.6231
lfoot -10.5774 4.73873
ltoes 68.8493
171
root -0.0806958 15.4934 -25.2928 -157.195 -51.1069 164.115
lowerback 20.3921 -0.45751 -6.79882
upperback -0.520199 -2.26488 0.557925
thorax -11.8003 -0.653758 5.1965
lowerneck -12.1642 -11.0571 -10.2946
upperneck -1.78432 -13.7657 8.91412
head 2.69741 -6.6958 3.37308
rclavicle -3.18055e-014 8.74653e-014
rhumerus -40.2872 9.47288 -81.3249
rradius 106.192
rwrist 2.11051
rhand -29.9911 4.42139
rfingers 7.12502
rthumb -3.3089 -25.5327
lclavicle -3.18055e-014 8.74653e-014
lhumerus -3.98393 -30.3094 78.8315
lradius 120.12
lwrist 14.3963
lhand -12.6479 -12.6029
lfingers 7.12502
lthumb 13.4326 16.944
rfemur -68.0541 -25.0854 5.50749
rtibia 78.9045
rfoot -16.8245 -14.2581
rtoes -27.2998
lfemur -14.0594 -1.70484 -10.9034
ltibia 57.9867
lfoot -9.36978 4.3076
ltoes 68.712
172
root -0.253987 15.5236 -25.6421 -156.892 -49.7229 163.978
lowerback 20.1916 -0.452859 -6.70296
upperback -0.745 -2.20048 0.704723
thorax -11.9495 -0.6067 5.2851
lowerneck -12.7883 -10.6664 -9.83588
upperneck -1.7548 -13.2305 7.96137
head 2.64936 -6.45196 3.04916
rclavicle -5.96354e-015 -1.11319e-014
rhumerus -41.42 10.8956 -81.1733
rradius 107.493
rwrist 3.05633
rhand -30.2626 5.20925
rfingers 7.12502
rthumb -3.57103 -24.7406
lclavicle -5.96354e-015 -1.11319e-014
lhumerus -6.05183 -30.2352 77.5419
lradius 122.226
lwrist 12.9086
lhand -12.4128 -13.07
lfingers 7.12502
lthumb 13.6592 16.4618
rfemur -68.5447 -24.3815 5.12233
rtibia 76.5262
rfoot -17.1415 -14.6111
rtoes -28.1698
lfemur -11.5855 -2.1403 -11.3732
ltibia 55.2791
lfoot -7.84468 3.76818
ltoes 68.5397
173
root -0.433093 15.5574 -25.9991 -156.661 -48.3747 163.938
lowerback 19.9717 -0.4646 -6.48681
upperback -0.968862 -2.12625 0.863814
thorax -12.091 -0.562894 5.31519
lowerneck -13.3723 -10.2594 -9.37729
upperneck -1.69754 -12.6845 6.98051
head 2.60897 -6.20736 2.71751
rclavicle 3.45885e-014 -9.54166e-015
rhumerus -42.5351 12.2827 -81.0248
rradius 108.532
rwrist 3.76652
rhand -30.5576 5.95704
rfingers 7.12502
rthumb -3.85591 -23.9878
lclavicle 3.45885e-014 -9.54166e-015
lhumerus -8.51852 -30.5638 76.4102
lradius 124.021
lwrist 10.8761
lhand -12.3323 -13.6857
lfingers 7.12502
lthumb 13.7368 15.8408
rfemur -68.8947 -23.699 4.84342
rtibia 74.1352
rfoot -17.4274 -14.9493
rtoes -28.9052
lfemur -9.1225 -2.71487 -11.8708
ltibia 52.5228
lfoot -5.97561 3.12188
ltoes 68.3204
174
root -0.616321 15.5934 -26.3649 -156.471 -47.0602 163.962
lowerback 19.7197 -0.485266 -6.1946
upperback -1.18453 -2.04318 1.03315
thorax -12.2073 -0.521705 5.30932
lowerneck -13.9114 -9.83766 -8.92249
upperneck -1.62396 -12.1291 5.98665
head 2.57414 -5.96245 2.38322
rclavicle 5.725e-014 2.38542e-014
rhumerus -43.599 13.6188 -80.8816
rradius 109.274
rwrist 4.18853
rhand -30.9069 6.63852
rfingers 7.12502
rthumb -4.19327 -23.3
lclavicle 5.725e-014 2.38542e-014
lhumerus -11.4182 -31.2696 75.5508
lradius 125.515
lwrist 8.67695
lhand -12.3444 -14.3498
lfingers 7.12502
lthumb 13.7251 15.1775
rfemur -69.1179 -23.0271 4.66049
rtibia 71.7793
rfoot -17.6867 -15.2492
rtoes -29.5771
lfemur -6.68493 -3.46095 -12.4116
ltibia 49.7343
lfoot -3.66899 2.42704
ltoes 68.032
